<?xml version="1.0" encoding="UTF-8" standalone="no"?>
<svg width="1241px" height="228px" viewBox="0 0 1241 228" version="1.1" xmlns="http://www.w3.org/2000/svg" xmlns:xlink="http://www.w3.org/1999/xlink">
    <!-- Generator: Sketch 39.1 (31720) - http://www.bohemiancoding.com/sketch -->
    <title>icon_rippling_blue</title>
    <desc>Created with Sketch.</desc>
    <defs></defs>
    <g id="Symbols" stroke="none" stroke-width="1" fill="none" fill-rule="evenodd">
        <g id="Logo-Copy" fill="#01C8E5">
            <g id="icon_rippling_blue">
                <g id="Group">
                    <path d="M113.3814,201.4473 C65.0483292,201.4473 25.8664,162.264832 25.8664,113.9313 C25.8664,65.5977681 65.0483292,26.4153 113.3814,26.4153 C161.715336,26.4153 200.8974,65.5976334 200.8974,113.9313 C200.8974,162.264967 161.715336,201.4473 113.3814,201.4473 Z M113.3814,0.5493 C50.7628523,0.5493 0.000399999999,51.3124504 0.000399999999,113.9313 C0.000399999999,176.55015 50.7628523,227.3133 113.3814,227.3133 C176.000773,227.3133 226.7634,176.550324 226.7634,113.9313 C226.7634,51.3122759 176.000773,0.5493 113.3814,0.5493 Z" id="Stroke-1"></path>
                    <path d="M149.956105,77.3575286 C157.693597,85.0957258 162.7257,99.6688239 162.7257,113.9311 C162.7257,128.193376 157.693597,142.766474 149.955271,150.505505 C142.217281,158.243495 127.644968,163.2751 113.3817,163.2751 C99.1184316,163.2751 84.5461195,158.243495 76.807712,150.505088 C69.0698032,142.766474 64.0377,128.193376 64.0377,113.9311 C64.0377,99.6688239 69.0698032,85.0957258 76.8081286,77.3566954 C84.5463258,69.6192032 99.1194239,64.5871 113.3817,64.5871 C127.643976,64.5871 142.217074,69.6192032 149.956105,77.3575286 Z M58.5181046,59.0666714 C45.4815843,72.1043793 38.1717,93.2739893 38.1717,113.9311 C38.1717,134.588211 45.4815843,155.757821 58.5172714,168.794695 C71.5542886,181.831713 92.7234156,189.1411 113.3817,189.1411 C134.039984,189.1411 155.209111,181.831713 168.245712,168.795112 C181.281816,155.757821 188.5917,134.588211 188.5917,113.9311 C188.5917,93.2739893 181.281816,72.1043793 168.246129,59.0675046 C155.208421,46.0309843 134.038811,38.7211 113.3817,38.7211 C92.7245893,38.7211 71.5549793,46.0309843 58.5181046,59.0666714 Z" id="Stroke-3"></path>
                    <path d="M126.108604,124.087951 C126.137685,124.073494 126.012126,124.120249 125.760616,124.191615 C124.865204,124.44569 123.513509,124.671232 121.845469,124.828636 C119.497946,125.05016 117.357618,125.10518 113.691694,125.104064 C113.535352,125.104016 113.535352,125.104016 113.3815,125.104 C113.227677,125.104016 113.227677,125.104016 113.071363,125.104064 C109.405471,125.10518 107.264872,125.050142 104.917113,124.828559 C103.249188,124.671139 101.897574,124.445591 101.002224,124.191525 C100.750742,124.120164 100.625205,124.073416 100.654307,124.087883 C101.048215,124.2837 101.543098,124.622726 102.115301,125.194777 C102.689849,125.769476 103.028935,126.264467 103.22479,126.658488 C103.239293,126.687665 103.192577,126.562194 103.121248,126.310766 C102.867249,125.41544 102.6418,124.063799 102.484498,122.395757 C102.263231,120.049426 102.208291,117.910202 102.209433,114.245106 C102.209483,114.08678 102.209483,114.08678 102.2095,113.931 C102.209483,113.77525 102.209483,113.77525 102.209433,113.616951 C102.20829,109.951887 102.263249,107.812393 102.484575,105.465825 C102.641893,103.797898 102.867348,102.446339 103.121339,101.551073 C103.192663,101.299674 103.239371,101.174225 103.224858,101.203422 C103.028986,101.597473 102.689881,102.092492 102.117723,102.664801 C101.542992,103.239381 101.047973,103.578486 100.653922,103.774358 C100.624725,103.788871 100.750174,103.742163 101.001573,103.670839 C101.896839,103.416848 103.248398,103.191393 104.916325,103.034075 C107.262893,102.812749 109.402387,102.75779 113.067451,102.758933 C113.22575,102.758983 113.22575,102.758983 113.3815,102.759 C113.53728,102.758983 113.53728,102.758983 113.695606,102.758933 C117.360702,102.757791 119.499926,102.812731 121.846257,103.033998 C123.514299,103.1913 124.86594,103.416749 125.761266,103.670748 C126.012694,103.742077 126.138165,103.788793 126.108988,103.77429 C125.714967,103.578435 125.219976,103.239349 124.647699,102.667223 C124.074258,102.093782 123.735056,101.598754 123.539107,101.204653 C123.52454,101.175356 123.571215,101.300682 123.642521,101.551953 C123.896528,102.44703 124.122015,103.79841 124.279359,105.466161 C124.500736,107.812617 124.555709,109.952054 124.554567,113.617033 C124.554517,113.77529 124.554517,113.77529 124.5545,113.931 C124.554517,114.08674 124.554517,114.08674 124.554567,114.245025 C124.555709,117.910035 124.500754,120.049202 124.279437,122.395421 C124.122108,124.063286 123.896627,125.414748 123.642612,126.309887 C123.571301,126.561186 123.524618,126.686535 123.539175,126.657257 C123.735107,126.263187 124.07429,125.768186 124.646488,125.195988 C125.21987,124.622758 125.714725,124.283752 126.108604,124.087951 Z M150.03112,124.824565 C150.351354,121.429721 150.421951,118.681685 150.420565,114.236962 C150.420516,114.079811 150.420516,114.079811 150.4205,113.931 C150.420516,113.782219 150.420516,113.782219 150.420565,113.625097 C150.421951,109.180286 150.35133,106.431855 150.031005,103.036613 C149.270636,94.9771908 147.579922,89.0193982 142.936512,84.375988 C138.291691,79.7323967 132.334188,78.0422839 124.27473,77.2822508 C120.880059,76.9621224 118.132136,76.8915488 113.687542,76.8929345 C113.53035,76.8929839 113.53035,76.8929839 113.3815,76.893 C113.232681,76.8929839 113.232681,76.8929839 113.075517,76.8929345 C108.630835,76.8915486 105.882517,76.9621467 102.487449,77.2823662 C94.4283487,78.0424928 88.4711119,79.7325939 83.8276992,84.374777 C79.1830939,89.0206119 77.4929928,94.9778487 76.7328662,103.036949 C76.4126467,106.432017 76.3420486,109.180335 76.3434345,113.625017 C76.3434839,113.782181 76.3434839,113.782181 76.3435,113.931 C76.3434839,114.07985 76.3434839,114.07985 76.3434345,114.237042 C76.3420488,118.681636 76.4126224,121.429559 76.7327508,124.82423 C77.4927839,132.883688 79.1828967,138.841191 83.825277,143.484801 C88.4708287,148.129123 94.4279723,149.819534 102.486661,150.580119 C105.883493,150.900715 108.6333,150.971417 113.079237,150.970063 C113.234441,150.970016 113.234441,150.970016 113.3815,150.97 C113.528589,150.970016 113.528589,150.970016 113.683822,150.970063 C118.129671,150.971416 120.879083,150.900739 124.275518,150.580235 C132.334565,149.819743 138.291974,148.12932 142.935301,143.487223 C147.580119,138.842405 149.270845,132.884346 150.03112,124.824565 Z" id="Stroke-5"></path>
                </g>
                <path d="M347.304822,70.9830379 C345.312529,70.38535 342.324089,69.9868914 339.33565,69.9868914 C331.366478,69.9868914 318.815032,73.1745602 313.63507,84.331401 L313.63507,70.9830379 L284.348363,70.9830379 L284.348363,170 L314.631217,170 L314.631217,126.767242 C314.631217,107.043541 325.588828,99.8712864 337.741815,99.8712864 C340.730255,99.8712864 343.917924,100.070516 347.304822,100.867433 L347.304822,70.9830379 Z M396.862918,170 L396.862918,70.9830379 L366.580064,70.9830379 L366.580064,170 L396.862918,170 Z M363.990083,40.7001843 C363.990083,50.46242 371.959255,58.431592 381.522261,58.431592 C391.483726,58.431592 399.452898,50.46242 399.452898,40.7001843 C399.452898,30.9379486 391.483726,22.9687766 381.522261,22.9687766 C371.959255,22.9687766 363.990083,30.9379486 363.990083,40.7001843 L363.990083,40.7001843 Z M453.593268,207.853567 L453.593268,162.230057 C458.175542,167.808478 467.738548,172.191522 480.489224,172.191522 C508.182096,172.191522 527.706568,150.475529 527.706568,120.192675 C527.706568,90.5075093 510.373619,68.5922863 481.684599,68.5922863 C467.539319,68.5922863 456.780937,74.7683946 452.597122,81.1437322 L452.597122,70.9830379 L423.310414,70.9830379 L423.310414,207.853567 L453.593268,207.853567 Z M498.021402,120.391904 C498.021402,136.927936 487.462249,145.096337 475.508491,145.096337 C463.753962,145.096337 453.194809,136.728707 453.194809,120.391904 C453.194809,103.855872 463.753962,95.8867004 475.508491,95.8867004 C487.462249,95.8867004 498.021402,103.855872 498.021402,120.391904 L498.021402,120.391904 Z M577.463893,207.853567 L577.463893,162.230057 C582.046167,167.808478 591.609173,172.191522 604.359848,172.191522 C632.052721,172.191522 651.577192,150.475529 651.577192,120.192675 C651.577192,90.5075093 634.244243,68.5922863 605.555224,68.5922863 C591.409944,68.5922863 580.651561,74.7683946 576.467746,81.1437322 L576.467746,70.9830379 L547.181039,70.9830379 L547.181039,207.853567 L577.463893,207.853567 Z M621.892027,120.391904 C621.892027,136.927936 611.332874,145.096337 599.379116,145.096337 C587.624587,145.096337 577.065434,136.728707 577.065434,120.391904 C577.065434,103.855872 587.624587,95.8867004 599.379116,95.8867004 C611.332874,95.8867004 621.892027,103.855872 621.892027,120.391904 L621.892027,120.391904 Z M701.334517,170 L701.334517,25.7579868 L671.051664,25.7579868 L671.051664,170 L701.334517,170 Z M758.264097,170 L758.264097,70.9830379 L727.981244,70.9830379 L727.981244,170 L758.264097,170 Z M725.391263,40.7001843 C725.391263,50.46242 733.360435,58.431592 742.923441,58.431592 C752.884906,58.431592 760.854078,50.46242 760.854078,40.7001843 C760.854078,30.9379486 752.884906,22.9687766 742.923441,22.9687766 C733.360435,22.9687766 725.391263,30.9379486 725.391263,40.7001843 L725.391263,40.7001843 Z M814.994448,113.219649 C814.994448,103.258184 821.369785,95.8867004 831.33125,95.8867004 C842.288862,95.8867004 847.468823,103.258184 847.468823,113.02042 L847.468823,170 L877.751677,170 L877.751677,107.840458 C877.751677,86.1244647 866.594836,68.393057 841.691174,68.393057 C831.530479,68.393057 819.377492,72.9753309 813.998301,82.339108 L813.998301,70.9830379 L784.711594,70.9830379 L784.711594,170 L814.994448,170 L814.994448,113.219649 Z M896.230002,175.57842 C899.019212,193.309828 917.149078,210.842006 945.638868,210.842006 C982.695518,210.842006 998.633862,186.137573 998.633862,157.647783 L998.633862,70.9830379 L969.745614,70.9830379 L969.745614,81.5421908 C966.956403,76.362229 958.389544,69.1899742 942.25197,69.1899742 C915.156785,69.1899742 896.230002,91.5036558 896.230002,117.602694 C896.230002,145.096337 915.953703,165.816185 942.25197,165.816185 C956.59648,165.816185 965.16334,160.038535 968.749467,154.659344 L968.749467,159.241618 C968.749467,177.172255 959.38569,184.543739 944.244263,184.543739 C932.888193,184.543739 924.919021,177.570713 922.926728,168.007707 L896.230002,175.57842 Z M947.830391,139.517917 C935.677403,139.517917 926.512856,131.150286 926.512856,117.602694 C926.512856,104.055102 936.474321,95.6874711 947.830391,95.6874711 C959.186461,95.6874711 968.948696,104.055102 968.948696,117.602694 C968.948696,131.150286 960.182607,139.517917 947.830391,139.517917 L947.830391,139.517917 Z M1019.30371,151.272446 C1019.30371,162.230057 1028.46826,171.793064 1039.6251,171.793064 C1050.78194,171.793064 1060.14572,162.230057 1060.14572,151.272446 C1060.14572,140.115605 1050.78194,130.951057 1039.6251,130.951057 C1028.46826,130.951057 1019.30371,140.115605 1019.30371,151.272446 L1019.30371,151.272446 Z M1115.87992,170 L1115.87992,70.9830379 L1085.59707,70.9830379 L1085.59707,170 L1115.87992,170 Z M1083.00709,40.7001843 C1083.00709,50.46242 1090.97626,58.431592 1100.53926,58.431592 C1110.50073,58.431592 1118.4699,50.46242 1118.4699,40.7001843 C1118.4699,30.9379486 1110.50073,22.9687766 1100.53926,22.9687766 C1090.97626,22.9687766 1083.00709,30.9379486 1083.00709,40.7001843 L1083.00709,40.7001843 Z M1187.7517,145.096337 C1176.39563,145.096337 1165.43802,136.927936 1165.43802,120.391904 C1165.43802,103.656643 1176.39563,95.8867004 1187.7517,95.8867004 C1199.307,95.8867004 1210.06538,103.656643 1210.06538,120.391904 C1210.06538,137.127165 1199.307,145.096337 1187.7517,145.096337 L1187.7517,145.096337 Z M1187.7517,67.9945984 C1158.26576,67.9945984 1135.15516,89.7105921 1135.15516,120.391904 C1135.15516,151.073216 1158.26576,172.988439 1187.7517,172.988439 C1217.43686,172.988439 1240.34823,151.073216 1240.34823,120.391904 C1240.34823,89.7105921 1217.43686,67.9945984 1187.7517,67.9945984 L1187.7517,67.9945984 Z" id="rippling.io"></path>
            </g>
        </g>
    </g>
</svg>