<?xml version="1.0" encoding="UTF-8" standalone="no"?>
<svg width="13px" height="10px" viewBox="0 0 13 10" version="1.1" xmlns="http://www.w3.org/2000/svg" xmlns:xlink="http://www.w3.org/1999/xlink">
    <!-- Generator: Sketch 39.1 (31720) - http://www.bohemiancoding.com/sketch -->
    <title>icon_arror_right</title>
    <desc>Created with Sketch.</desc>
    <defs></defs>
    <g id="IMP---Basics" stroke="none" stroke-width="1" fill="none" fill-rule="evenodd">
        <g id="implementation---all-atoms" transform="translate(-378.000000, -538.000000)" fill="#626262">
            <g id="Group-2" transform="translate(150.000000, 530.000000)">
                <g id="icon_arror_right" transform="translate(228.000000, 8.000000)">
                    <path d="M0.99,5.44298195 L5.03,9.48298195 C5.37,9.84298195 5.75,9.86298195 6.11,9.52298195 L6.33,9.28298195 C6.71,8.94298195 6.73,8.56298195 6.37,8.20298195 L3.95,5.80298195 C5.23,5.88298195 6.55,5.88298195 7.21,5.88298195 L11.69,5.88298195 C12.25,5.88298195 12.53,5.62298195 12.53,5.06298195 L12.53,4.70298195 C12.53,4.14298195 12.25,3.88298195 11.69,3.88298195 L7.21,3.88298195 C6.55,3.88298195 5.23,3.88298195 3.95,3.96298195 L6.37,1.56298195 C6.73,1.20298195 6.71,0.822981946 6.33,0.482981946 L6.11,0.242981946 C5.75,-0.0970180538 5.37,-0.0770180538 5.03,0.282981946 L0.99,4.32298195 C0.63,4.70298195 0.63,5.08298195 0.99,5.44298195 L0.99,5.44298195 Z" id="â†" transform="translate(6.625000, 4.882982) scale(-1, 1) translate(-6.625000, -4.882982) "></path>
                </g>
            </g>
        </g>
    </g>
</svg>