<?xml version="1.0" encoding="UTF-8" standalone="no"?>
<svg width="18px" height="21px" viewBox="0 0 18 21" version="1.1" xmlns="http://www.w3.org/2000/svg" xmlns:xlink="http://www.w3.org/1999/xlink">
    <!-- Generator: Sketch 39.1 (31720) - http://www.bohemiancoding.com/sketch -->
    <title>icon_alert</title>
    <desc>Created with Sketch.</desc>
    <defs></defs>
    <g id="Symbols" stroke="none" stroke-width="1" fill="none" fill-rule="evenodd">
        <g id="Alert:-Inactive" fill="#FFFFFF">
            <g id="icon_alert">
                <path d="M16.6953125,14.15625 C16.3307273,13.7135395 15.9498718,13.1927113 15.5527344,12.59375 C15.155597,11.9947887 14.9570313,11.3763053 14.9570313,10.7382812 L14.9570313,6.65625 C14.9570313,5.77082891 14.804038,4.94075908 14.4980469,4.16601562 C14.1920558,3.39127217 13.7688829,2.71419561 13.2285156,2.13476562 C12.6881483,1.55533564 12.0533891,1.09961104 11.3242188,0.767578125 C10.5950484,0.435545215 9.8072959,0.26953125 8.9609375,0.26953125 C8.1276,0.26953125 7.34635781,0.435545215 6.6171875,0.767578125 C5.88801719,1.09961104 5.25651309,1.55533564 4.72265625,2.13476562 C4.18879941,2.71419561 3.76888174,3.39127217 3.46289063,4.16601562 C3.15689951,4.94075908 3.00390625,5.77082891 3.00390625,6.65625 L3.00390625,10.7382812 C3.00390625,11.3632844 2.795575,11.9654919 2.37890625,12.5449219 C1.9622375,13.1243519 1.57812676,13.6419248 1.2265625,14.0976562 C0.914060938,14.514325 0.666667578,14.8951806 0.484375,15.2402344 C0.302082422,15.5852882 0.289061719,15.9205713 0.4453125,16.2460938 C0.588542383,16.5325535 0.819659863,16.7115882 1.13867188,16.7832031 C1.45768389,16.8548181 1.76692559,16.890625 2.06640625,16.890625 L5.640625,16.890625 C5.640625,17.8151088 5.96614258,18.6028613 6.6171875,19.2539062 C7.26823242,19.9049512 8.05598496,20.2304688 8.98046875,20.2304688 C9.90495254,20.2304688 10.6927051,19.9049512 11.34375,19.2539062 C11.9947949,18.6028613 12.3203125,17.8151088 12.3203125,16.890625 L15.9726563,16.890625 C16.1679697,16.890625 16.4414045,16.8645836 16.7929688,16.8125 C17.144533,16.7604164 17.3984367,16.5716162 17.5546875,16.2460938 C17.7109383,15.9205713 17.6914072,15.5950537 17.4960938,15.2695312 C17.3007803,14.9440088 17.0338559,14.5729187 16.6953125,14.15625 L16.6953125,14.15625 Z M8.98046875,18.921875 C8.42057012,18.921875 7.94205928,18.7233093 7.54492188,18.3261719 C7.14778447,17.9290345 6.94921875,17.4505236 6.94921875,16.890625 L11.0117188,16.890625 C11.0117188,17.4505236 10.813153,17.9290345 10.4160156,18.3261719 C10.0188782,18.7233093 9.54036738,18.921875 8.98046875,18.921875 L8.98046875,18.921875 Z M15.9726563,15.5625 L2.06640625,15.5625 L1.9296875,15.5625 L1.83203125,15.5625 C1.89713574,15.4583328 1.97200479,15.3476568 2.05664063,15.2304688 C2.14127646,15.1132807 2.22265586,15.0026047 2.30078125,14.8984375 C2.6783873,14.3906225 3.11132568,13.7819046 3.59960938,13.0722656 C4.08789307,12.3626267 4.33203125,11.5846396 4.33203125,10.7382812 L4.33203125,6.65625 C4.33203125,5.95312148 4.44921758,5.29557598 4.68359375,4.68359375 C4.91796992,4.07161152 5.2434875,3.5377627 5.66015625,3.08203125 C6.076825,2.6262998 6.56835654,2.26497529 7.13476563,1.99804688 C7.70117471,1.73111846 8.30989258,1.59765625 8.9609375,1.59765625 C9.62500332,1.59765625 10.2402315,1.73111846 10.8066406,1.99804688 C11.3730497,2.26497529 11.8645813,2.6262998 12.28125,3.08203125 C12.6979188,3.5377627 13.0266915,4.07161152 13.2675781,4.68359375 C13.5084647,5.29557598 13.6289063,5.95312148 13.6289063,6.65625 L13.6289063,10.7382812 C13.6289063,11.6106814 13.8600237,12.4081995 14.3222656,13.1308594 C14.7845075,13.8535192 15.2304666,14.4752578 15.6601563,14.9960938 C15.7382816,15.08724 15.8164059,15.1816401 15.8945313,15.2792969 C15.9726566,15.3769536 16.0442705,15.4713537 16.109375,15.5625 L16.0507813,15.5625 L15.9726563,15.5625 L15.9726563,15.5625 Z" id="Bell---simple-line-icons"></path>
            </g>
        </g>
    </g>
</svg>